<svg width="220" height="85" viewBox="0 0 220 85" fill="none" xmlns="http://www.w3.org/2000/svg">
<g filter="url(#filter0_dd_2275_1940)">
<rect x="10" y="14" width="200" height="57" rx="28.5" fill="#B57556"/>
<path fill-rule="evenodd" clip-rule="evenodd" d="M70.4871 50.9853C68.2367 53.2357 65.1844 54.5 62.0018 54.5C58.8192 54.5 55.767 53.2357 53.5165 50.9853C51.2661 48.7348 50.0018 45.6826 50.0018 42.5C50.0018 39.3174 51.2661 36.2652 53.5165 34.0147C55.767 31.7643 58.8192 30.5 62.0018 30.5C65.1844 30.5 68.2367 31.7643 70.4871 34.0147C72.7375 36.2652 74.0018 39.3174 74.0018 42.5C74.0018 45.6826 72.7375 48.7348 70.4871 50.9853ZM66.2445 38.2574C65.7758 37.7887 65.016 37.7887 64.5474 38.2574L62.0018 40.8029L59.4562 38.2574C58.9876 37.7887 58.2278 37.7887 57.7592 38.2574C57.2905 38.726 57.2905 39.4858 57.7592 39.9544L60.3048 42.5L57.7592 45.0456C57.2905 45.5142 57.2905 46.274 57.7592 46.7426C58.2278 47.2113 58.9876 47.2113 59.4562 46.7426L62.0018 44.1971L64.5474 46.7426C65.016 47.2113 65.7758 47.2113 66.2445 46.7426C66.7131 46.274 66.7131 45.5142 66.2445 45.0456L63.6989 42.5L66.2445 39.9544C66.7131 39.4858 66.7131 38.726 66.2445 38.2574Z" fill="#FFE3E3"/>
<path d="M91.854 50H94.5V39.074C94.5 37.958 94.932 37.472 95.724 37.472C96.066 37.472 96.444 37.562 96.786 37.706L97.29 35.726C96.84 35.564 96.156 35.402 95.364 35.402C92.844 35.402 91.854 37.022 91.854 39.11V50ZM90.504 42.008H96.408V39.938H92.016L90.504 40.046V42.008ZM103.676 50.252C104.828 50.252 105.836 49.694 106.718 48.938H106.79L106.988 50H109.148V44.132C109.148 41.198 107.834 39.686 105.278 39.686C103.676 39.686 102.254 40.28 101.066 41L102.02 42.764C102.938 42.206 103.856 41.81 104.792 41.81C106.034 41.81 106.448 42.548 106.502 43.538C102.452 43.988 100.706 45.122 100.706 47.264C100.706 48.992 101.876 50.252 103.676 50.252ZM104.54 48.182C103.766 48.182 103.226 47.84 103.226 47.066C103.226 46.148 104.036 45.482 106.502 45.176V47.21C105.854 47.84 105.296 48.182 104.54 48.182ZM115.444 50H118.09V39.938H115.444V50ZM116.758 38.3C117.676 38.3 118.306 37.724 118.306 36.842C118.306 35.978 117.676 35.42 116.758 35.42C115.84 35.42 115.228 35.978 115.228 36.842C115.228 37.724 115.84 38.3 116.758 38.3ZM126.995 50.252C127.625 50.252 128.039 50.144 128.345 50.036L128.021 48.074C127.841 48.11 127.769 48.11 127.679 48.11C127.427 48.11 127.157 47.912 127.157 47.282V35.654H124.511V47.174C124.511 49.046 125.141 50.252 126.995 50.252ZM136.795 50.252C138.163 50.252 139.117 49.586 139.999 48.56H140.053L140.251 50H142.411V39.938H139.783V46.724C139.099 47.624 138.559 47.984 137.731 47.984C136.741 47.984 136.309 47.444 136.309 45.896V39.938H133.663V46.22C133.663 48.758 134.617 50.252 136.795 50.252ZM148.85 50H151.496V44.006C152.054 42.548 153.008 42.008 153.782 42.008C154.214 42.008 154.484 42.08 154.844 42.17L155.294 39.902C154.988 39.758 154.664 39.686 154.124 39.686C153.08 39.686 151.982 40.388 151.262 41.72H151.208L150.992 39.938H148.85V50ZM164.4 50.252C165.642 50.252 166.902 49.838 167.892 49.154L167.01 47.516C166.272 47.966 165.552 48.218 164.742 48.218C163.248 48.218 162.168 47.372 161.934 45.716H168.162C168.216 45.464 168.27 44.996 168.27 44.492C168.27 41.702 166.848 39.686 164.058 39.686C161.682 39.686 159.378 41.702 159.378 44.978C159.378 48.308 161.574 50.252 164.4 50.252ZM161.898 43.952C162.114 42.476 163.05 41.72 164.112 41.72C165.408 41.72 166.02 42.584 166.02 43.952H161.898Z" fill="#FFE3E3"/>
</g>
<defs>
<filter id="filter0_dd_2275_1940" x="0" y="0" width="220" height="85" filterUnits="userSpaceOnUse" color-interpolation-filters="sRGB">
<feFlood flood-opacity="0" result="BackgroundImageFix"/>
<feColorMatrix in="SourceAlpha" type="matrix" values="0 0 0 0 0 0 0 0 0 0 0 0 0 0 0 0 0 0 127 0" result="hardAlpha"/>
<feOffset dy="-4"/>
<feGaussianBlur stdDeviation="5"/>
<feComposite in2="hardAlpha" operator="out"/>
<feColorMatrix type="matrix" values="0 0 0 0 1 0 0 0 0 1 0 0 0 0 1 0 0 0 0.9 0"/>
<feBlend mode="normal" in2="BackgroundImageFix" result="effect1_dropShadow_2275_1940"/>
<feColorMatrix in="SourceAlpha" type="matrix" values="0 0 0 0 0 0 0 0 0 0 0 0 0 0 0 0 0 0 127 0" result="hardAlpha"/>
<feOffset dy="4"/>
<feGaussianBlur stdDeviation="5"/>
<feComposite in2="hardAlpha" operator="out"/>
<feColorMatrix type="matrix" values="0 0 0 0 0.158333 0 0 0 0 0.137882 0 0 0 0 0.137882 0 0 0 0.35 0"/>
<feBlend mode="normal" in2="effect1_dropShadow_2275_1940" result="effect2_dropShadow_2275_1940"/>
<feBlend mode="normal" in="SourceGraphic" in2="effect2_dropShadow_2275_1940" result="shape"/>
</filter>
</defs>
</svg>
