<svg width="63" height="46" viewBox="0 0 63 46" fill="none" xmlns="http://www.w3.org/2000/svg">
<path d="M41.8829 30.74L0.70827 2.67848C0.0900323 2.18617 -0.157263 1.32463 0.337327 0.709249C0.831918 0.0938647 1.69745 -0.152288 2.31569 0.34002L43.4903 28.4016C44.1086 28.8939 44.3559 29.7554 43.8613 30.3708C43.3667 30.9862 42.5012 31.2323 41.8829 30.74Z" fill="#426FA6"/>
<path d="M51.279 45.1408L40.5216 37.8793C36.8122 35.4177 35.9467 30.3716 38.4196 26.8023C40.8926 23.11 45.9621 22.2485 49.5479 24.71L60.3052 31.9716C62.16 33.2023 62.6545 35.6639 61.2944 37.51L56.7195 44.1562C55.6066 45.8793 53.1337 46.3716 51.279 45.1408Z" fill="#9DBBCE"/>
<path d="M1.5738 3.29387L0.70827 2.67848C0.0900323 2.18617 -0.157263 1.32463 0.337327 0.709249C0.831918 0.0938647 1.69745 -0.152288 2.31569 0.34002L3.18122 0.955404C3.79946 1.44771 4.04675 2.30925 3.55216 2.92464C3.05757 3.6631 2.19204 3.78617 1.5738 3.29387Z" fill="#B5C6D2"/>
<path d="M38.0932 24.8293L35.9492 23.3711L34.3447 25.7085L36.4887 27.1667L38.0932 24.8293Z" fill="#B5C6D2"/>
</svg>
