<svg width="66" height="78" viewBox="0 0 66 78" fill="none" xmlns="http://www.w3.org/2000/svg">
<path d="M32.5 65C50.4493 65 65 50.4493 65 32.5C65 14.5507 50.4493 0 32.5 0C14.5507 0 0 14.5507 0 32.5C0 50.4493 14.5507 65 32.5 65Z" fill="#C4D4DF"/>
<path d="M32.5004 59.1946C47.2435 59.1946 59.1951 47.243 59.1951 32.4999C59.1951 17.7568 47.2435 5.80518 32.5004 5.80518C17.7573 5.80518 5.80566 17.7568 5.80566 32.4999C5.80566 47.243 17.7573 59.1946 32.5004 59.1946Z" fill="#A0BCC8"/>
<path opacity="0.5" d="M30.501 62.7672H30.4534H30.2631C29.6921 62.7197 29.3114 62.2438 29.359 61.7204C29.4066 61.1494 29.8824 60.7211 30.4058 60.8163H30.5962C31.1672 60.8639 31.5479 61.3397 31.5003 61.8631C31.4527 62.3866 31.0244 62.7672 30.501 62.7672ZM38.3048 62.2914C37.829 62.2914 37.4007 61.9583 37.3055 61.4825C37.2104 60.959 37.5435 60.4356 38.0669 60.2929L38.2572 60.2453C38.7807 60.1501 39.3041 60.4832 39.4468 61.0066C39.542 61.5301 39.2089 62.0535 38.6855 62.1962L38.4952 62.2438C38.4 62.2914 38.3524 62.2914 38.3048 62.2914ZM22.6972 61.197C22.602 61.197 22.4593 61.197 22.3641 61.1494L22.1738 61.1018C21.6503 60.9115 21.3648 60.3404 21.5552 59.817C21.7455 59.2936 22.3165 59.0081 22.8399 59.1984L23.0303 59.246C23.5537 59.4363 23.8392 60.0074 23.6489 60.5308C23.4585 60.9115 23.0779 61.197 22.6972 61.197ZM45.8231 59.6267C45.4424 59.6267 45.1094 59.4363 44.919 59.0557C44.6811 58.5798 44.8714 57.9612 45.3473 57.7233L45.49 57.6281C45.9659 57.3902 46.5845 57.5806 46.8224 58.0564C47.0603 58.5322 46.87 59.1508 46.3941 59.3888L46.2038 59.4839C46.1562 59.6267 45.9659 59.6267 45.8231 59.6267ZM15.5596 57.4854C15.3692 57.4854 15.1789 57.4378 14.9886 57.2951L14.8458 57.1999C14.4176 56.8668 14.2748 56.2482 14.6079 55.82C14.941 55.3917 15.5596 55.2489 15.9878 55.582L16.1306 55.6772C16.5588 56.0103 16.7016 56.6289 16.3685 57.0571C16.1782 57.3426 15.8927 57.4854 15.5596 57.4854ZM52.3897 55.0586C52.1042 55.0586 51.8663 54.9634 51.676 54.7255C51.2953 54.2973 51.3429 53.6787 51.7236 53.298L51.8663 53.1552C52.247 52.7746 52.9132 52.8221 53.2938 53.2028C53.6745 53.5835 53.6269 54.2497 53.2463 54.6303L53.1035 54.7731C52.8656 54.9634 52.6277 55.0586 52.3897 55.0586ZM9.70671 52.0608C9.42121 52.0608 9.1357 51.918 8.94537 51.6801L8.80261 51.5374C8.46952 51.1091 8.51711 50.4905 8.94537 50.1099C9.37363 49.7768 9.99222 49.8243 10.3729 50.2526L10.4681 50.3954C10.8011 50.8236 10.7536 51.4422 10.3253 51.8229C10.1826 51.9656 9.94463 52.0608 9.70671 52.0608ZM57.4812 48.9202C57.2909 48.9202 57.1006 48.8727 56.9578 48.7775C56.482 48.492 56.3392 47.8734 56.6247 47.3975L56.7199 47.2548C57.0054 46.779 57.624 46.6362 58.0998 46.9217C58.5757 47.2072 58.7184 47.8258 58.4329 48.3017L58.3378 48.492C58.1474 48.7299 57.8143 48.9202 57.4812 48.9202ZM5.56689 45.2563C5.18622 45.2563 4.80554 45.0183 4.66279 44.6377L4.61521 44.4949C4.37729 43.9715 4.61521 43.3529 5.13863 43.1626C5.66206 42.9246 6.23307 43.1626 6.4234 43.6384L6.51857 43.8287C6.7565 44.3522 6.51858 44.9232 5.99515 45.1611C5.8524 45.2087 5.70964 45.2563 5.56689 45.2563ZM60.717 41.5923C60.6218 41.5923 60.5266 41.5923 60.479 41.5447C59.9556 41.4019 59.6225 40.8785 59.7653 40.3551L59.8129 40.1648C59.9556 39.6413 60.5266 39.3082 61.0501 39.451C61.5735 39.5937 61.9066 40.1648 61.7638 40.6882L61.7162 40.8309C61.5735 41.2592 61.1452 41.5923 60.717 41.5923ZM3.37802 37.5476C2.90218 37.5476 2.47392 37.167 2.37875 36.6911L2.33116 36.5008C2.28358 35.9773 2.66425 35.4539 3.18768 35.3588C3.71111 35.2636 4.23453 35.6918 4.3297 36.2153L4.37729 36.4056C4.47245 36.929 4.09178 37.4525 3.52077 37.5476C3.47318 37.5476 3.4256 37.5476 3.37802 37.5476ZM61.859 33.6933C61.859 33.6933 61.8114 33.6933 61.859 33.6933C61.288 33.6933 60.8597 33.265 60.8597 32.694V32.5037V32.4085C60.8597 31.8375 61.288 31.4093 61.859 31.4093C62.43 31.4093 62.8583 31.8375 62.8583 32.4085V32.5513V32.7416C62.8107 33.2651 62.3824 33.6933 61.859 33.6933ZM3.37802 29.5535C3.33043 29.5535 3.28285 29.5535 3.23526 29.5535C2.71184 29.4583 2.28358 28.9825 2.37875 28.4115L2.42633 28.2211C2.5215 27.6977 2.99734 27.317 3.56835 27.3646C4.09178 27.4598 4.47245 27.9356 4.42487 28.5066L4.37729 28.697C4.28212 29.1728 3.85386 29.5535 3.37802 29.5535ZM60.7645 25.6516C60.3363 25.6516 59.908 25.3661 59.8129 24.9378L59.7653 24.7475C59.6225 24.2241 59.908 23.653 60.4315 23.5103C60.9549 23.3675 61.5259 23.653 61.6687 24.1765L61.7162 24.3668C61.859 24.8902 61.5735 25.4612 61.0025 25.604C60.9549 25.6516 60.8597 25.6516 60.7645 25.6516ZM5.51931 21.8448C5.37655 21.8448 5.2338 21.7973 5.13863 21.7497C4.61521 21.5118 4.37729 20.9407 4.61521 20.4173L4.71037 20.227C4.94829 19.7036 5.51931 19.5132 6.04273 19.7036C6.56616 19.9415 6.75649 20.5125 6.56616 21.0359L6.47099 21.2262C6.28065 21.6545 5.89998 21.8448 5.51931 21.8448ZM57.624 18.3236C57.2909 18.3236 56.9578 18.1333 56.7675 17.8478L56.6723 17.705C56.3868 17.2292 56.5296 16.6106 57.0054 16.3251C57.4812 16.0396 58.0998 16.1823 58.3853 16.6582L58.4805 16.8485C58.766 17.3243 58.6233 17.9429 58.1474 18.2284C57.9571 18.276 57.7667 18.3236 57.624 18.3236ZM9.65913 15.0403C9.42121 15.0403 9.23087 14.9451 9.04053 14.8024C8.61228 14.4693 8.56469 13.8031 8.89778 13.3749L9.04053 13.2321C9.37362 12.8038 10.0398 12.7563 10.4681 13.0894C10.8963 13.4224 10.9439 14.0886 10.6108 14.5169L10.5156 14.6596C10.2301 14.8976 9.94464 15.0403 9.65913 15.0403ZM52.5801 12.0901C52.3421 12.0901 52.1042 11.9949 51.8663 11.8046L51.7236 11.6618C51.2953 11.2812 51.2953 10.6626 51.676 10.2343C52.0566 9.80605 52.6752 9.80605 53.1035 10.1867L53.2463 10.3295C53.6269 10.7101 53.6745 11.3287 53.2938 11.757C53.1035 11.9949 52.8656 12.0901 52.5801 12.0901ZM15.4644 9.56812C15.1313 9.56812 14.8458 9.42537 14.6555 9.13987C14.3224 8.71161 14.4175 8.04543 14.8934 7.75993L15.0837 7.61717C15.5596 7.28408 16.1782 7.42684 16.4637 7.85509C16.7968 8.33094 16.654 8.94953 16.2258 9.23504L16.083 9.3302C15.8927 9.47296 15.7023 9.56812 15.4644 9.56812ZM46.061 7.47442C45.9183 7.47442 45.7279 7.42684 45.5852 7.37925L45.4424 7.28408C44.9666 7.04616 44.7763 6.42757 45.0142 5.95173C45.2521 5.47589 45.8707 5.28555 46.3465 5.52347L46.5369 5.61864C47.0127 5.85656 47.2031 6.47515 46.9651 6.95099C46.7748 7.28408 46.4417 7.47442 46.061 7.47442ZM22.5544 5.85656C22.1262 5.85656 21.7455 5.61864 21.6028 5.19038C21.4124 4.66695 21.6979 4.09594 22.2214 3.90561L22.4117 3.85802C22.9351 3.66769 23.5061 3.95319 23.6965 4.47662C23.8868 5.00004 23.6013 5.57105 23.0779 5.76139L22.8875 5.80897C22.7924 5.80897 22.6496 5.85656 22.5544 5.85656ZM38.5427 4.76212C38.4951 4.76212 38.4 4.76212 38.3524 4.76212L38.1621 4.71454C37.6386 4.61937 37.258 4.09594 37.4007 3.52493C37.4959 3.00151 38.0193 2.62083 38.5903 2.76359L38.7807 2.81117C39.3041 2.90634 39.6848 3.47735 39.542 4.00078C39.4468 4.42903 39.0186 4.76212 38.5427 4.76212ZM30.3583 4.19111C29.8348 4.19111 29.4066 3.81044 29.359 3.23943C29.3114 2.66842 29.7397 2.19258 30.2631 2.19258H30.4534C30.9768 2.14499 31.5003 2.57325 31.5003 3.14426C31.5479 3.71527 31.1196 4.19111 30.5486 4.19111H30.3583C30.4058 4.19111 30.4058 4.19111 30.3583 4.19111Z" fill="white"/>
<path d="M29.4263 38.5664H37.3713V36.4478H31.955V33.0818H36.3803V30.9461H31.955V28.0244H37.1833V25.9229H29.4263V38.5664Z" fill="white"/>
</svg>
