<svg width="66" height="78" viewBox="0 0 66 78" fill="none" xmlns="http://www.w3.org/2000/svg">
<g clip-path="url(#clip0_325_3)">
<path d="M12.3746 69.6481L27.3951 39.7027C27.8735 38.7938 29.1172 38.6982 29.6912 39.5114L33.6138 44.8212C33.853 45.156 34.2835 45.3952 34.714 45.3952H41.3154C42.32 45.3952 42.9897 46.4476 42.5591 47.3565L27.4908 77.254C27.0124 78.1629 25.7687 78.2586 25.1468 77.4454L21.3199 72.0399C21.0808 71.6572 20.6502 71.4659 20.1719 71.4659L13.5705 71.6094C12.5659 71.6572 11.8962 70.557 12.3746 69.6481Z" fill="#B3B960"/>
<path d="M53.8593 69.6481L38.7909 39.7027C38.3126 38.7938 37.0688 38.6982 36.4948 39.5114L32.5722 44.8212C32.3331 45.156 31.9025 45.3952 31.472 45.3952H24.8706C23.8661 45.3952 23.1964 46.4476 23.6269 47.3565L38.6953 77.254C39.1736 78.1629 40.4174 78.2586 41.0392 77.4454L44.8661 72.0399C45.1053 71.6572 45.5358 71.4659 46.0142 71.4659L52.6155 71.6094C53.6201 71.6572 54.2898 70.557 53.8593 69.6481Z" fill="#B3B960"/>
<path d="M32.672 65.344C50.7163 65.344 65.344 50.7163 65.344 32.672C65.344 14.6278 50.7163 0 32.672 0C14.6278 0 0 14.6278 0 32.672C0 50.7163 14.6278 65.344 32.672 65.344Z" fill="#D2DA71"/>
<path d="M32.6729 59.509C47.4941 59.509 59.509 47.4941 59.509 32.6729C59.509 17.8518 47.4941 5.83691 32.6729 5.83691C17.8518 5.83691 5.83691 17.8518 5.83691 32.6729C5.83691 47.4941 17.8518 59.509 32.6729 59.509Z" fill="#B3B960"/>
<path opacity="0.5" d="M30.6618 63.0979H30.614H30.4227C29.8486 63.05 29.4659 62.5717 29.5138 62.0455C29.5616 61.4715 30.04 61.0409 30.5662 61.1366H30.7575C31.3315 61.1844 31.7142 61.6628 31.6664 62.189C31.6186 62.7152 31.188 63.0979 30.6618 63.0979ZM38.507 62.6195C38.0286 62.6195 37.5981 62.2847 37.5024 61.8063C37.4067 61.2801 37.7416 60.7539 38.2678 60.6104L38.4591 60.5626C38.9853 60.4669 39.5115 60.8017 39.655 61.3279C39.7507 61.8541 39.4158 62.3803 38.8896 62.5238L38.6983 62.5717C38.6026 62.6195 38.5548 62.6195 38.507 62.6195ZM22.8167 61.5193C22.7211 61.5193 22.5775 61.5193 22.4819 61.4715L22.2905 61.4236C21.7643 61.2323 21.4773 60.6582 21.6687 60.132C21.86 59.6058 22.434 59.3188 22.9602 59.5102L23.1516 59.558C23.6778 59.7494 23.9648 60.3234 23.7734 60.8496C23.5821 61.2323 23.1994 61.5193 22.8167 61.5193ZM46.065 59.9407C45.6824 59.9407 45.3475 59.7494 45.1562 59.3667C44.917 58.8883 45.1083 58.2664 45.5867 58.0273L45.7302 57.9316C46.2086 57.6924 46.8304 57.8838 47.0696 58.3621C47.3088 58.8405 47.1174 59.4623 46.6391 59.7015L46.4477 59.7972C46.3999 59.9407 46.2086 59.9407 46.065 59.9407ZM15.6413 57.7881C15.45 57.7881 15.2586 57.7402 15.0673 57.5967L14.9238 57.5011C14.4933 57.1662 14.3498 56.5443 14.6846 56.1138C15.0195 55.6833 15.6413 55.5398 16.0719 55.8746L16.2154 55.9703C16.6459 56.3052 16.7894 56.927 16.4545 57.3576C16.2632 57.6446 15.9762 57.7881 15.6413 57.7881ZM52.6664 55.3484C52.3794 55.3484 52.1402 55.2528 51.9489 55.0136C51.5662 54.5831 51.614 53.9612 51.9967 53.5785L52.1402 53.435C52.5229 53.0523 53.1926 53.1001 53.5753 53.4828C53.958 53.8655 53.9102 54.5352 53.5275 54.9179L53.384 55.0614C53.1448 55.2528 52.9056 55.3484 52.6664 55.3484ZM9.75749 52.3348C9.47047 52.3348 9.18346 52.1913 8.99212 51.9521L8.84861 51.8086C8.51375 51.3781 8.56159 50.7562 8.99212 50.3735C9.42264 50.0386 10.0445 50.0865 10.4272 50.517L10.5229 50.6605C10.8577 51.091 10.8099 51.7129 10.3794 52.0956C10.2359 52.2391 9.99667 52.3348 9.75749 52.3348ZM57.7849 49.1776C57.5935 49.1776 57.4022 49.1298 57.2587 49.0341C56.7803 48.7471 56.6368 48.1252 56.9238 47.6468L57.0195 47.5033C57.3065 47.025 57.9284 46.8815 58.4067 47.1685C58.8851 47.4555 59.0286 48.0774 58.7416 48.5557L58.6459 48.7471C58.4546 48.9863 58.1197 49.1776 57.7849 49.1776ZM5.59576 45.4942C5.21307 45.4942 4.83038 45.255 4.68687 44.8724L4.63904 44.7288C4.39986 44.2026 4.63903 43.5808 5.16523 43.3894C5.69143 43.1503 6.26546 43.3894 6.4568 43.8678L6.55248 44.0591C6.79166 44.5853 6.55248 45.1594 6.02628 45.3985C5.88277 45.4464 5.73926 45.4942 5.59576 45.4942ZM61.0377 41.8108C60.9421 41.8108 60.8464 41.8108 60.7986 41.763C60.2724 41.6195 59.9375 41.0933 60.081 40.5671L60.1288 40.3758C60.2724 39.8496 60.8464 39.5147 61.3726 39.6582C61.8988 39.8017 62.2336 40.3758 62.0901 40.902L62.0423 41.0455C61.8988 41.476 61.4683 41.8108 61.0377 41.8108ZM3.3953 37.7448C2.91694 37.7448 2.48641 37.3621 2.39074 36.8837L2.3429 36.6924C2.29507 36.1662 2.67776 35.64 3.20395 35.5443C3.73015 35.4487 4.25635 35.8792 4.35202 36.4054L4.39986 36.5967C4.49553 37.1229 4.11284 37.6491 3.53881 37.7448C3.49097 37.7448 3.44314 37.7448 3.3953 37.7448ZM62.1858 33.8701C62.1858 33.8701 62.138 33.8701 62.1858 33.8701C61.6118 33.8701 61.1812 33.4395 61.1812 32.8655V32.6742V32.5785C61.1812 32.0045 61.6118 31.5739 62.1858 31.5739C62.7598 31.5739 63.1904 32.0045 63.1904 32.5785V32.722V32.9133C63.1425 33.4395 62.712 33.8701 62.1858 33.8701ZM3.3953 29.7083C3.34746 29.7083 3.29963 29.7083 3.25179 29.7083C2.72559 29.6127 2.29507 29.1343 2.39074 28.5603L2.43858 28.3689C2.53425 27.8427 3.01261 27.46 3.58664 27.5079C4.11284 27.6035 4.49553 28.0819 4.44769 28.6559L4.39986 28.8473C4.30418 29.3256 3.87366 29.7083 3.3953 29.7083ZM61.0856 25.7858C60.655 25.7858 60.2245 25.4988 60.1288 25.0682L60.081 24.8769C59.9375 24.3507 60.2245 23.7767 60.7507 23.6331C61.2769 23.4896 61.8509 23.7767 61.9945 24.3029L62.0423 24.4942C62.1858 25.0204 61.8988 25.5944 61.3247 25.7379C61.2769 25.7858 61.1812 25.7858 61.0856 25.7858ZM5.54792 21.9589C5.40441 21.9589 5.2609 21.9111 5.16523 21.8632C4.63903 21.624 4.39986 21.05 4.63904 20.5238L4.73471 20.3325C4.97389 19.8063 5.54792 19.6149 6.07412 19.8063C6.60031 20.0454 6.79166 20.6195 6.60031 21.1457L6.50464 21.337C6.3133 21.7675 5.93061 21.9589 5.54792 21.9589ZM57.9284 18.419C57.5935 18.419 57.2587 18.2277 57.0673 17.9407L56.9717 17.7972C56.6847 17.3188 56.8282 16.6969 57.3065 16.4099C57.7849 16.1229 58.4067 16.2664 58.6938 16.7448L58.7894 16.9361C59.0765 17.4145 58.9329 18.0363 58.4546 18.3233C58.2632 18.3712 58.0719 18.419 57.9284 18.419ZM9.70966 15.1183C9.47048 15.1183 9.27913 15.0227 9.08779 14.8792C8.65726 14.5443 8.60943 13.8746 8.94428 13.4441L9.08779 13.3006C9.42264 12.87 10.0923 12.8222 10.5229 13.1571C10.9534 13.4919 11.0012 14.1616 10.6664 14.5921L10.5707 14.7356C10.2837 14.9748 9.99667 15.1183 9.70966 15.1183ZM52.8578 12.1525C52.6186 12.1525 52.3794 12.0568 52.1402 11.8655L51.9967 11.722C51.5662 11.3393 51.5662 10.7174 51.9489 10.2869C52.3316 9.85637 52.9534 9.85637 53.384 10.2391L53.5275 10.3826C53.9102 10.7653 53.958 11.3871 53.5753 11.8176C53.384 12.0568 53.1448 12.1525 52.8578 12.1525ZM15.5457 9.61719C15.2108 9.61719 14.9238 9.47368 14.7324 9.18667C14.3976 8.75614 14.4933 8.08644 14.9716 7.79942L15.163 7.65591C15.6413 7.32106 16.2632 7.46457 16.5502 7.89509C16.8851 8.37345 16.7416 8.99532 16.311 9.28234L16.1675 9.37801C15.9762 9.52152 15.7848 9.61719 15.5457 9.61719ZM46.3042 7.51241C46.1607 7.51241 45.9694 7.46457 45.8259 7.41673L45.6824 7.32106C45.204 7.08188 45.0127 6.46001 45.2518 5.98165C45.491 5.50329 46.1129 5.31195 46.5912 5.55113L46.7826 5.6468C47.261 5.88598 47.4523 6.50785 47.2131 6.98621C47.0218 7.32106 46.6869 7.51241 46.3042 7.51241ZM22.6732 5.88598C22.2427 5.88598 21.86 5.6468 21.7165 5.21628C21.5252 4.69008 21.8122 4.11605 22.3384 3.9247L22.5297 3.87687C23.0559 3.68552 23.6299 3.97254 23.8213 4.49873C24.0126 5.02493 23.7256 5.59896 23.1994 5.79031L23.0081 5.83814C22.9124 5.83814 22.7689 5.88598 22.6732 5.88598ZM38.7461 4.78575C38.6983 4.78575 38.6026 4.78575 38.5548 4.78575L38.3634 4.73792C37.8372 4.64224 37.4546 4.11605 37.5981 3.54201C37.6937 3.01582 38.2199 2.63313 38.794 2.77664L38.9853 2.82447C39.5115 2.92015 39.8942 3.49418 39.7507 4.02037C39.655 4.4509 39.2245 4.78575 38.7461 4.78575ZM30.5183 4.21172C29.9921 4.21172 29.5616 3.82903 29.5138 3.255C29.4659 2.68097 29.8965 2.20261 30.4227 2.20261H30.614C31.1402 2.15477 31.6664 2.58529 31.6664 3.15933C31.7142 3.73336 31.2837 4.21172 30.7097 4.21172H30.5183C30.5662 4.21172 30.5662 4.21172 30.5183 4.21172Z" fill="white"/>
<path d="M28.7589 38.6753H33.2247C35.9651 38.6753 38.0627 37.5081 38.0627 34.9876C38.0627 33.3129 37.0646 32.3487 35.7283 32.0273V31.9596C36.794 31.5706 37.4199 30.4033 37.4199 29.2531C37.4199 26.9186 35.4576 26.1574 32.8864 26.1574H28.7589V38.6753ZM31.2624 31.2491V28.0858H32.751C34.2566 28.0858 34.984 28.5087 34.984 29.6083C34.984 30.6233 34.3073 31.2491 32.7172 31.2491H31.2624ZM31.2624 36.7469V33.1099H33.0048C34.7302 33.1099 35.6268 33.6343 35.6268 34.8523C35.6268 36.1379 34.6964 36.7469 33.0048 36.7469H31.2624Z" fill="white"/>
</g>
<defs>
<clipPath id="clip0_325_3">
<rect width="65.34" height="78" fill="white"/>
</clipPath>
</defs>
</svg>
