<svg width="80" height="64" viewBox="0 0 80 64" fill="none" xmlns="http://www.w3.org/2000/svg">
<g clip-path="url(#clip0_549_2)">
<path d="M47.1056 43.7472C66.9048 27.4719 78.5486 8.96682 73.1128 2.41503C67.677 -4.13677 47.2201 3.74574 27.4209 20.0211C7.6217 36.2965 -4.02214 54.8015 1.41364 61.3533C6.84942 67.9051 27.3064 60.0226 47.1056 43.7472Z" fill="#D3A674"/>
<path d="M49.0894 37.7861C35.3645 48.9861 29.5531 50.34 24.2363 43.94C17.1884 35.4477 19.9086 30.5246 33.6335 19.2015C47.3584 7.87844 61.8251 2.95537 66.1528 8.1246C70.4805 13.2938 62.6907 26.4631 49.0894 37.7861Z" fill="#5186BC"/>
<path d="M57.7428 5.04898L67.7583 17.1105C68.0056 17.3567 67.6346 17.7259 67.3873 17.6028L50.4476 8.37206C50.2003 8.24898 49.8294 8.61821 50.0767 8.86437L62.5651 24.0028C62.8124 24.249 63.1833 24.0028 63.0597 23.7567L57.2482 5.29514C57.1246 5.04898 57.4955 4.80283 57.7428 5.04898Z" stroke="#002A50" stroke-width="0.2006" stroke-miterlimit="10"/>
<path d="M67.2675 17.7258C67.1439 17.6028 67.1439 17.3566 67.2675 17.2335L67.8858 16.7412C68.0094 16.6182 68.2567 16.6182 68.3804 16.7412C68.504 16.8643 68.504 17.1105 68.3804 17.2335L67.7621 17.7258C67.6385 17.8489 67.3912 17.8489 67.2675 17.7258Z" fill="#002A50"/>
<path d="M57.125 5.53835C57.0013 5.41527 57.0013 5.16912 57.125 5.04604L57.7432 4.55373C57.8668 4.43066 58.1141 4.43066 58.2378 4.55373C58.3614 4.67681 58.3614 4.92296 58.2378 5.04604L57.6195 5.53835C57.4959 5.66143 57.2486 5.66143 57.125 5.53835Z" fill="#002A50"/>
<path d="M49.832 8.49514C49.7083 8.37206 49.7083 8.12591 49.832 8.00283L50.4502 7.51052C50.5739 7.38744 50.8212 7.38744 50.9448 7.51052C51.0685 7.6336 51.0685 7.87975 50.9448 8.00283L50.3266 8.61821C50.2029 8.74129 49.9556 8.74129 49.832 8.49514Z" fill="#002A50"/>
<path d="M62.8144 24.2451C62.6908 24.1221 62.6908 23.8759 62.8144 23.7528L63.4327 23.2605C63.5563 23.1374 63.8036 23.1374 63.9272 23.2605C64.0509 23.3836 64.0509 23.6298 63.9272 23.7528L63.309 24.2451C63.1854 24.3682 62.9381 24.3682 62.8144 24.2451Z" fill="#002A50"/>
<path d="M17.4341 38.1556C17.5577 38.2786 17.5577 38.5248 17.4341 38.6479L16.8158 39.1402C16.6922 39.2633 16.4449 39.2633 16.3213 39.1402C16.1976 39.0171 16.1976 38.7709 16.3213 38.6479L16.9395 38.1556C17.0631 37.9094 17.3104 37.9094 17.4341 38.1556Z" fill="#002A50"/>
<path d="M27.5767 50.3384C27.7003 50.4615 27.7003 50.7077 27.5767 50.8307L26.9584 51.323C26.8348 51.4461 26.5875 51.4461 26.4638 51.323C26.3402 51.2 26.3402 50.9538 26.4638 50.8307L27.0821 50.3384C27.2057 50.0923 27.453 50.0923 27.5767 50.3384Z" fill="#002A50"/>
<path d="M34.8706 47.2622C34.9943 47.3853 34.9943 47.6315 34.8706 47.7545L34.2524 48.2468C34.1287 48.3699 33.8814 48.3699 33.7578 48.2468C33.6341 48.1238 33.6341 47.8776 33.7578 47.7545L34.376 47.2622C34.4997 47.0161 34.747 47.1392 34.8706 47.2622Z" fill="#002A50"/>
<path d="M21.7612 31.5105C21.8849 31.6336 21.8849 31.8798 21.7612 32.0028L21.143 32.4951C21.0193 32.6182 20.772 32.6182 20.6484 32.4951C20.5248 32.3721 20.5248 32.1259 20.6484 32.0028L21.2666 31.5105C21.3903 31.3874 21.6376 31.3874 21.7612 31.5105Z" fill="#002A50"/>
<path d="M1.36206 61.2948C4.20595 64.7409 11.1302 64.2486 20.0328 60.6794C25.1024 54.8948 24.8551 50.7101 20.0328 44.6794C16.3234 40.2486 12.3667 39.5101 5.56608 43.3255C0.249231 51.2025 -1.48184 57.8486 1.36206 61.2948Z" fill="#D6A85C"/>
<path d="M26.9564 50.7067L16.9409 38.6451C16.6936 38.399 17.0646 38.0297 17.3119 38.1528L34.2516 47.3836C34.4989 47.5067 34.8698 47.1374 34.6225 46.8913L22.0105 31.8759C21.7632 31.6297 21.3922 31.8759 21.5159 32.122L27.451 50.4605C27.5746 50.7067 27.2037 50.9528 26.9564 50.7067Z" stroke="#002A50" stroke-width="0.2006" stroke-miterlimit="10"/>
<path d="M15.9517 42.2144C16.0753 42.3375 16.0753 42.5836 15.9517 42.7067L15.3334 43.199C15.2098 43.3221 14.9625 43.3221 14.8388 43.199C14.7152 43.0759 14.7152 42.8298 14.8388 42.7067L15.4571 42.2144C15.5807 42.0913 15.828 42.0913 15.9517 42.2144Z" fill="#002A50"/>
<path d="M22.7524 50.3374C22.8761 50.4605 22.8761 50.7067 22.7524 50.8297L22.1342 51.322C22.0106 51.4451 21.7633 51.4451 21.6396 51.322C21.516 51.199 21.516 50.9528 21.6396 50.8297L22.2578 50.3374C22.3815 50.2143 22.6288 50.2143 22.7524 50.3374Z" fill="#002A50"/>
<path d="M26.7094 50.4604L15.9521 42.7066C15.7048 42.5835 15.5811 42.8296 15.7048 42.9527L22.0108 50.5835C22.1344 50.7066 22.3817 50.5835 22.2581 50.3373L17.0649 38.645" stroke="#002A50" stroke-width="0.2159" stroke-miterlimit="10"/>
</g>
<defs>
<clipPath id="clip0_549_2">
<rect width="80" height="64" fill="white"/>
</clipPath>
</defs>
</svg>
