<svg width="30" height="40" viewBox="0 0 30 40" fill="none" xmlns="http://www.w3.org/2000/svg">
<g clip-path="url(#clip0_2222_3568)">
<path d="M7.40514 6.47059C7.40514 6.47059 10.2287 0 7.40514 0C4.8169 0 6.16984 6.47059 6.16984 6.47059" fill="#445727"/>
<path d="M5.05044 7.58859C5.05044 7.58859 2.28573 1.17683 0.344555 3.23565C-1.42015 5.118 4.16808 8.47094 4.16808 8.47094" fill="#445727"/>
<path d="M11.6367 17.8803C11.6367 17.8803 12.2837 5.52734 6.57786 5.52734C0.871975 5.52734 -1.01038 16.9391 9.10727 20.7038L11.6367 17.8803Z" fill="#657F33"/>
<path d="M18.8125 28.0572C18.8125 28.0572 27.1066 20.4101 28.636 24.1748C30.1654 27.8807 27.9301 34.2337 18.8125 30.5866" fill="#657F33"/>
<path d="M9.75715 39.9977C9.75715 39.9977 0.463037 20.1153 13.8748 14.9977C27.2866 9.88005 22.6395 34.1153 14.3454 39.9977H9.75715Z" fill="#81A643"/>
<path d="M10.8747 35.3524C10.9924 35.2936 10.8159 35.176 10.7571 35.2348C10.6394 35.2936 10.5806 35.4113 10.463 35.5289C10.3453 35.4113 10.2865 35.2936 10.1688 35.2348C10.11 35.176 9.99236 35.2936 10.0512 35.3524C10.1688 35.4701 10.2865 35.5877 10.3453 35.7054C10.2277 35.823 10.1688 35.9407 10.11 36.0583C10.0512 36.176 10.2277 36.2348 10.2277 36.1171C10.2865 35.9995 10.3453 35.8818 10.463 35.823C10.5218 35.8818 10.5806 35.9995 10.6982 36.1171C10.7571 36.176 10.8747 36.1171 10.8159 36.0583C10.7571 35.9407 10.6394 35.823 10.5806 35.7642C10.6394 35.5289 10.7571 35.4113 10.8747 35.3524Z" fill="#657F33"/>
<path d="M18.2888 31.4735C18.4064 31.4147 18.23 31.2971 18.1711 31.3559C18.0535 31.4147 17.9947 31.5323 17.877 31.65C17.7594 31.5323 17.7005 31.4147 17.5829 31.3559C17.5241 31.2971 17.4064 31.4147 17.4653 31.4735C17.5829 31.5912 17.7005 31.7088 17.7594 31.8265C17.6417 31.9441 17.5829 32.0618 17.5241 32.1794C17.4653 32.2971 17.6417 32.3559 17.6417 32.2382C17.7005 32.1206 17.7594 32.0029 17.877 31.9441C17.9358 32.0029 17.9947 32.1206 18.1123 32.2382C18.1711 32.2971 18.2888 32.2382 18.23 32.1794C18.1711 32.0618 18.0535 31.9441 17.9947 31.8853C18.1123 31.65 18.1711 31.5912 18.2888 31.4735Z" fill="#657F33"/>
<path d="M13.9333 31.997C14.051 31.9381 13.8745 31.8205 13.8157 31.8793C13.698 31.9381 13.6392 32.0558 13.5215 32.1734C13.4039 32.0558 13.3451 31.9381 13.2274 31.8793C13.1686 31.8205 13.051 31.9381 13.1098 31.997C13.2274 32.1146 13.3451 32.2323 13.4039 32.3499C13.2863 32.4675 13.2274 32.5852 13.1686 32.7028C13.1098 32.8205 13.2863 32.8793 13.2863 32.7617C13.3451 32.644 13.4039 32.5264 13.5215 32.4675C13.5804 32.5264 13.6392 32.644 13.7568 32.7617C13.8157 32.8205 13.9333 32.7617 13.8745 32.7028C13.8157 32.5852 13.698 32.4675 13.6392 32.4087C13.7568 32.1734 13.8157 32.1146 13.9333 31.997Z" fill="#657F33"/>
<path d="M17.5192 36.8798C17.6369 36.8209 17.4604 36.7033 17.4016 36.7621C17.284 36.8209 17.2251 36.9386 17.1075 37.0562C16.9898 36.9386 16.931 36.8209 16.8134 36.7621C16.7545 36.7033 16.6369 36.8209 16.6957 36.8798C16.8134 36.9974 16.931 37.1151 16.9898 37.2327C16.8722 37.3504 16.8134 37.468 16.7545 37.5857C16.6957 37.7033 16.8722 37.7621 16.8722 37.6445C16.931 37.5268 16.9898 37.4092 17.1075 37.3504C17.1663 37.4092 17.2251 37.5268 17.3428 37.6445C17.4016 37.7033 17.5192 37.6445 17.4604 37.5857C17.4016 37.468 17.284 37.3504 17.2251 37.2915C17.3428 37.0562 17.4016 36.9386 17.5192 36.8798Z" fill="#657F33"/>
<path d="M19.2888 21.0009C19.4064 20.942 19.23 20.8244 19.1711 20.8832C19.0535 20.942 18.9947 21.0597 18.877 21.1773C18.7594 21.0597 18.7005 20.942 18.5829 20.8832C18.5241 20.8244 18.4064 20.942 18.4653 21.0009C18.5829 21.1185 18.7005 21.2362 18.7594 21.3538C18.6417 21.4715 18.5829 21.5891 18.5241 21.7067C18.4653 21.8244 18.6417 21.8832 18.6417 21.7656C18.7005 21.6479 18.7594 21.5303 18.877 21.4715C18.9358 21.5303 18.9947 21.6479 19.1123 21.7656C19.1711 21.8244 19.2888 21.7656 19.23 21.7067C19.1711 21.5891 19.0535 21.4715 18.9947 21.4126C19.1123 21.1773 19.23 21.0597 19.2888 21.0009Z" fill="#657F33"/>
<path d="M10.3435 22.5282C10.4611 22.4694 10.2846 22.3517 10.2258 22.4106C10.1082 22.4694 10.0493 22.587 9.9317 22.7047C9.81406 22.587 9.75523 22.4694 9.63758 22.4106C9.57876 22.3517 9.46111 22.4694 9.51994 22.5282C9.63759 22.6459 9.75523 22.7635 9.81406 22.8812C9.69641 22.9988 9.63759 23.1164 9.57876 23.2341C9.51994 23.3517 9.69641 23.4106 9.69641 23.2929C9.75523 23.1753 9.81406 23.0576 9.9317 22.9988C9.99053 23.0576 10.0494 23.1753 10.167 23.2929C10.2258 23.3517 10.3435 23.2929 10.2846 23.2341C10.2258 23.1164 10.1082 22.9988 10.0493 22.94C10.167 22.7047 10.2258 22.6459 10.3435 22.5282Z" fill="#657F33"/>
<path d="M7.28487 23.0595C7.40252 23.0006 7.22605 22.883 7.16723 22.9418C7.04958 23.0006 6.99076 23.1183 6.87311 23.2359C6.75546 23.1183 6.69664 23.0006 6.57899 22.9418C6.52017 22.883 6.40252 23.0006 6.46134 23.0595C6.57899 23.1771 6.69664 23.2948 6.75546 23.4124C6.63781 23.53 6.57899 23.6477 6.52017 23.7653C6.46134 23.883 6.63782 23.9418 6.63782 23.8242C6.69664 23.7065 6.75546 23.5889 6.87311 23.53C6.93193 23.5889 6.99076 23.7065 7.1084 23.8242C7.16723 23.883 7.28487 23.8242 7.22605 23.7653C7.16723 23.6477 7.04958 23.53 6.99076 23.4712C7.1084 23.2359 7.16723 23.1183 7.28487 23.0595Z" fill="#657F33"/>
<path d="M13.406 18.9384C13.5236 18.8795 13.3471 18.7619 13.2883 18.8207C13.1707 18.8795 13.1119 18.9972 12.9942 19.1148C12.8766 18.9972 12.8177 18.8795 12.7001 18.8207C12.6413 18.7619 12.5236 18.8795 12.5824 18.9384C12.7001 19.056 12.8177 19.1737 12.8766 19.2913C12.7589 19.409 12.7001 19.5266 12.6413 19.6442C12.5824 19.7619 12.7589 19.8207 12.7589 19.7031C12.8177 19.5854 12.8766 19.4678 12.9942 19.409C13.053 19.4678 13.1119 19.5854 13.2295 19.7031C13.2883 19.7619 13.406 19.7031 13.3471 19.6442C13.2883 19.5266 13.1707 19.409 13.1119 19.3501C13.2295 19.1148 13.3471 19.056 13.406 18.9384Z" fill="#657F33"/>
<path d="M8.58175 15.1181C8.6994 15.0592 8.52293 14.9416 8.4641 15.0004C8.34645 15.0592 8.28763 15.1769 8.16998 15.2945C8.05234 15.1769 7.99351 15.0592 7.87587 15.0004C7.81704 14.9416 7.6994 15.0592 7.75822 15.1181C7.87587 15.2357 7.99351 15.3533 8.05234 15.471C7.93469 15.5886 7.87587 15.7063 7.81704 15.8239C7.75822 15.9416 7.93469 16.0004 7.93469 15.8828C7.99351 15.7651 8.05234 15.6475 8.16998 15.5886C8.22881 15.6475 8.28763 15.7651 8.40528 15.8828C8.4641 15.9416 8.58175 15.8828 8.52292 15.8239C8.4641 15.7063 8.34645 15.5886 8.28763 15.5298C8.34645 15.2945 8.4641 15.1769 8.58175 15.1181Z" fill="#35441C"/>
<path d="M9.34347 11.2938C9.46112 11.235 9.28464 11.1174 9.22582 11.1762C9.10817 11.235 9.04935 11.3527 8.9317 11.4703C8.81406 11.3527 8.75523 11.235 8.63759 11.1762C8.57876 11.1174 8.46111 11.235 8.51994 11.2938C8.63759 11.4115 8.75523 11.5291 8.81406 11.6468C8.69641 11.7644 8.63759 11.8821 8.57876 11.9997C8.51994 12.1174 8.69641 12.1762 8.69641 12.0585C8.75523 11.9409 8.81406 11.8232 8.9317 11.7644C8.99053 11.8232 9.04935 11.9409 9.167 12.0585C9.22582 12.1174 9.34347 12.0585 9.28464 11.9997C9.22582 11.8821 9.10817 11.7644 9.04935 11.7056C9.10817 11.4703 9.22582 11.3527 9.34347 11.2938Z" fill="#35441C"/>
<path d="M12.1677 13.3524C12.2853 13.2936 12.1089 13.176 12.05 13.2348C11.9324 13.2936 11.8736 13.4113 11.7559 13.5289C11.6383 13.4113 11.5795 13.2936 11.4618 13.2348C11.403 13.176 11.2853 13.2936 11.3442 13.3524C11.4618 13.4701 11.5795 13.5877 11.6383 13.7054C11.5206 13.823 11.4618 13.9407 11.403 14.0583C11.3442 14.176 11.5206 14.2348 11.5206 14.1171C11.5795 13.9995 11.6383 13.8818 11.7559 13.823C11.8147 13.8818 11.8736 13.9995 11.9912 14.1171C12.05 14.176 12.1677 14.1171 12.1089 14.0583C12.05 13.9407 11.9324 13.823 11.8736 13.7642C11.9324 13.5289 12.05 13.4113 12.1677 13.3524Z" fill="#35441C"/>
<path d="M24.406 27.6454C24.5236 27.5866 24.3471 27.4689 24.2883 27.5278C24.1707 27.5866 24.1119 27.7042 23.9942 27.8219C23.8766 27.7042 23.8177 27.5866 23.7001 27.5278C23.6413 27.4689 23.5236 27.5866 23.5824 27.6454C23.7001 27.763 23.8177 27.8807 23.8766 27.9983C23.7589 28.116 23.7001 28.2336 23.6413 28.3513C23.5824 28.4689 23.7589 28.5278 23.7589 28.4101C23.8177 28.2925 23.8766 28.1748 23.9942 28.116C24.053 28.1748 24.1118 28.2925 24.2295 28.4101C24.2883 28.4689 24.406 28.4101 24.3471 28.3513C24.2883 28.2336 24.1707 28.116 24.1119 28.0572C24.2295 27.8219 24.3471 27.763 24.406 27.6454Z" fill="#35441C"/>
<path d="M26.988 24.8212C27.1056 24.7624 26.9292 24.6447 26.8704 24.7035C26.7527 24.7624 26.6939 24.88 26.5762 24.9976C26.4586 24.88 26.3998 24.7624 26.2821 24.7035C26.2233 24.6447 26.1056 24.7624 26.1645 24.8212C26.2821 24.9388 26.3998 25.0565 26.4586 25.1741C26.3409 25.2918 26.2821 25.4094 26.2233 25.5271C26.1645 25.6447 26.3409 25.7035 26.3409 25.5859C26.3998 25.4682 26.4586 25.3506 26.5762 25.2918C26.6351 25.3506 26.6939 25.4682 26.8115 25.5859C26.8704 25.6447 26.988 25.5859 26.9292 25.5271C26.8704 25.4094 26.7527 25.2918 26.6939 25.2329C26.8115 24.9977 26.8704 24.9388 26.988 24.8212Z" fill="#35441C"/>
<path d="M27.5192 28.4149C27.6369 28.3561 27.4604 28.2385 27.4016 28.2973C27.284 28.3561 27.2251 28.4738 27.1075 28.5914C26.9898 28.4738 26.931 28.3561 26.8134 28.2973C26.7545 28.2385 26.6369 28.3561 26.6957 28.4149C26.8134 28.5326 26.931 28.6502 26.9898 28.7679C26.8722 28.8855 26.8134 29.0032 26.7545 29.1208C26.6957 29.2385 26.8722 29.2973 26.8722 29.1796C26.931 29.062 26.9898 28.9443 27.1075 28.8855C27.1663 28.9443 27.2251 29.062 27.3428 29.1796C27.4016 29.2385 27.5192 29.1796 27.4604 29.1208C27.4016 29.0032 27.284 28.8855 27.2251 28.8267C27.284 28.5914 27.4016 28.5326 27.5192 28.4149Z" fill="#35441C"/>
<path d="M24.9294 31.2352C25.0471 31.1764 24.8706 31.0588 24.8118 31.1176C24.6941 31.1764 24.6353 31.2941 24.5176 31.4117C24.4 31.2941 24.3412 31.1764 24.2235 31.1176C24.1647 31.0588 24.0471 31.1764 24.1059 31.2352C24.2235 31.3529 24.3412 31.4705 24.4 31.5882C24.2823 31.7058 24.2235 31.8235 24.1647 31.9411C24.1059 32.0588 24.2823 32.1176 24.2823 31.9999C24.3412 31.8823 24.4 31.7647 24.5176 31.7058C24.5765 31.7647 24.6353 31.8823 24.7529 31.9999C24.8118 32.0588 24.9294 31.9999 24.8706 31.9411C24.8118 31.8235 24.6941 31.7058 24.6353 31.647C24.7529 31.4117 24.8118 31.2941 24.9294 31.2352Z" fill="#35441C"/>
<path d="M24.9294 23.5868C25.0471 23.528 24.8706 23.4103 24.8118 23.4692C24.6941 23.528 24.6353 23.6456 24.5176 23.7633C24.4 23.6456 24.3412 23.528 24.2235 23.4692C24.1647 23.4103 24.0471 23.528 24.1059 23.5868C24.2235 23.7044 24.3412 23.8221 24.4 23.9397C24.2823 24.0574 24.2235 24.175 24.1647 24.2927C24.1059 24.4103 24.2823 24.4692 24.2823 24.3515C24.3412 24.2339 24.4 24.1162 24.5176 24.0574C24.5765 24.1162 24.6353 24.2339 24.7529 24.3515C24.8118 24.4103 24.9294 24.3515 24.8706 24.2927C24.8118 24.175 24.6941 24.0574 24.6353 23.9986C24.7529 23.7633 24.8118 23.6456 24.9294 23.5868Z" fill="#35441C"/>
<path d="M28.7575 23.0595C28.8752 23.0006 28.6987 22.883 28.6399 22.9418C28.5222 23.0006 28.4634 23.1183 28.3458 23.2359C28.2281 23.1183 28.1693 23.0006 28.0516 22.9418C27.9928 22.883 27.8752 23.0006 27.934 23.0595C28.0516 23.1771 28.1693 23.2948 28.2281 23.4124C28.1105 23.53 28.0516 23.6477 27.9928 23.7653C27.934 23.883 28.1105 23.9418 28.1105 23.8242C28.1693 23.7065 28.2281 23.5889 28.3458 23.53C28.4046 23.5889 28.4634 23.7065 28.5811 23.8242C28.6399 23.883 28.7575 23.8242 28.6987 23.7653C28.6399 23.6477 28.5222 23.53 28.4634 23.4712C28.5811 23.2359 28.6987 23.1183 28.7575 23.0595Z" fill="#35441C"/>
<path d="M8.58175 3.35243C8.6994 3.29361 8.52293 3.17596 8.4641 3.23478C8.34645 3.29361 8.28763 3.41125 8.16998 3.5289C8.05234 3.41125 7.99351 3.29361 7.87587 3.23478C7.81704 3.17596 7.6994 3.29361 7.75822 3.35243C7.87587 3.47008 7.99351 3.58772 8.05234 3.70537C7.93469 3.82302 7.87587 3.94066 7.81704 4.05831C7.75822 4.17596 7.93469 4.23478 7.93469 4.11713C7.99351 3.99949 8.05234 3.88184 8.16998 3.82302C8.22881 3.88184 8.28763 3.99949 8.40528 4.11713C8.4641 4.17596 8.58175 4.11713 8.52292 4.05831C8.4641 3.94066 8.34645 3.82302 8.28763 3.76419C8.34645 3.5289 8.4641 3.41125 8.58175 3.35243Z" fill="#35441C"/>
<path d="M7.51925 1.05969C7.6369 1.00087 7.46043 0.883219 7.4016 0.942043C7.28395 1.00087 7.22513 1.11851 7.10748 1.17734C6.98984 1.05969 6.93101 0.942043 6.81337 0.883219C6.75454 0.824396 6.6369 0.942043 6.69572 1.00087C6.81337 1.11851 6.93101 1.23616 6.98984 1.35381C6.87219 1.47145 6.81337 1.5891 6.75454 1.70675C6.75454 1.76557 6.87219 1.88322 6.93101 1.76557C6.98984 1.64793 7.04866 1.53028 7.16631 1.47145C7.22513 1.53028 7.28395 1.64793 7.4016 1.76557C7.46043 1.8244 7.57807 1.76557 7.51925 1.70675C7.46043 1.5891 7.34278 1.47145 7.28395 1.41263C7.34278 1.23616 7.46043 1.11851 7.51925 1.05969Z" fill="#35441C"/>
<path d="M6.28801 2.82141C6.40566 2.76259 6.22919 2.64494 6.17037 2.70376C6.05272 2.76259 5.93507 2.88023 5.87625 2.99788C5.7586 2.88023 5.64095 2.76259 5.58213 2.64494C5.46448 2.58611 5.40566 2.70376 5.46448 2.76259C5.58213 2.88023 5.69978 2.99788 5.7586 3.11553C5.64095 3.23317 5.58213 3.35082 5.52331 3.46847C5.46448 3.58611 5.64095 3.64494 5.64095 3.52729C5.69978 3.40964 5.7586 3.292 5.87625 3.23317C5.93507 3.292 5.99389 3.40964 6.05272 3.52729C6.11154 3.58611 6.22919 3.52729 6.17037 3.46847C6.11154 3.35082 5.99389 3.23317 5.93507 3.17435C6.05272 2.99788 6.17037 2.93906 6.28801 2.82141Z" fill="#35441C"/>
<path d="M3.46066 3.88314C3.5783 3.82432 3.40183 3.70667 3.34301 3.76549C3.22536 3.82432 3.10771 3.88314 3.04889 4.00079C2.93124 3.88314 2.8136 3.82432 2.75477 3.70667C2.69595 3.64785 2.5783 3.70667 2.63713 3.82432C2.75477 3.88314 2.8136 4.00079 2.93124 4.11844C2.87242 4.23608 2.75477 4.35373 2.69595 4.47138C2.63713 4.58902 2.8136 4.64785 2.87242 4.58902C2.93124 4.47138 2.99007 4.35373 3.04889 4.23608C3.10771 4.29491 3.16654 4.41255 3.28418 4.5302C3.34301 4.58902 3.46065 4.5302 3.40183 4.47138C3.34301 4.35373 3.22536 4.23608 3.16654 4.11844C3.22536 4.05961 3.34301 3.94196 3.46066 3.88314Z" fill="#35441C"/>
<path d="M2.16769 6.17665C2.28533 6.11782 2.10886 6.00018 2.05004 6.059C1.93239 6.11782 1.87357 6.23547 1.75592 6.35312C1.63827 6.23547 1.57945 6.11782 1.4618 6.059C1.40298 6.00018 1.28533 6.11782 1.34416 6.17665C1.4618 6.29429 1.57945 6.41194 1.63827 6.52959C1.52063 6.64724 1.4618 6.76488 1.40298 6.88253C1.34416 7.00018 1.52063 7.059 1.52063 6.94135C1.57945 6.82371 1.63827 6.70606 1.75592 6.64724C1.81475 6.70606 1.87357 6.82371 1.99122 6.94135C2.05004 7.00018 2.16769 6.94135 2.10886 6.88253C2.05004 6.76488 1.93239 6.64724 1.87357 6.58841C1.99122 6.35312 2.05004 6.23547 2.16769 6.17665Z" fill="#35441C"/>
<path d="M0.874717 3.35266C0.992365 3.29384 0.815894 3.17619 0.75707 3.23501C0.639423 3.29384 0.5806 3.41148 0.462953 3.47031C0.404129 3.41148 0.286482 3.29384 0.168835 3.17619C0.110012 3.11736 -0.00763537 3.23501 0.0511882 3.29384C0.168835 3.41148 0.286482 3.52913 0.404129 3.58795C0.286482 3.7056 0.227659 3.82325 0.168835 3.99972C0.110012 4.05854 0.227659 4.17619 0.286482 4.05854C0.345306 3.94089 0.404129 3.82325 0.521776 3.76442C0.5806 3.82325 0.639423 3.94089 0.698247 3.99972C0.75707 4.05854 0.874717 3.99972 0.815894 3.94089C0.75707 3.82325 0.698247 3.7056 0.5806 3.64678C0.698247 3.52913 0.75707 3.41148 0.874717 3.35266Z" fill="#35441C"/>
<path d="M29.5232 26.3563C29.6408 26.2975 29.4643 26.1799 29.4055 26.2387C29.2879 26.2975 29.229 26.4152 29.1114 26.5328C28.9937 26.4152 28.9349 26.2975 28.8173 26.2387C28.7584 26.1799 28.6408 26.2975 28.6996 26.3563C28.8173 26.474 28.9349 26.5916 28.9937 26.7093C28.8761 26.8269 28.8173 26.9446 28.7584 27.0622C28.6996 27.1799 28.8761 27.2387 28.8761 27.121C28.9349 27.0034 28.9937 26.8857 29.1114 26.8269C29.1702 26.8857 29.229 27.0034 29.3467 27.121C29.4055 27.1799 29.5232 27.121 29.4643 27.0622C29.4055 26.9446 29.2879 26.8269 29.229 26.7681C29.3467 26.5328 29.4643 26.474 29.5232 26.3563Z" fill="#35441C"/>
<path d="M10.3435 7.41102C10.4611 7.3522 10.2846 7.23455 10.2258 7.29338C10.1082 7.3522 10.0493 7.46985 9.9317 7.58749C9.81406 7.46985 9.75523 7.3522 9.63758 7.29338C9.57876 7.23455 9.46111 7.3522 9.51994 7.41102C9.63759 7.52867 9.75523 7.64632 9.81406 7.76396C9.69641 7.88161 9.63759 7.99926 9.57876 8.11691C9.51994 8.23455 9.69641 8.29338 9.69641 8.17573C9.75523 8.05808 9.81406 7.94043 9.9317 7.88161C9.99053 7.94043 10.0494 8.05808 10.167 8.17573C10.2258 8.23455 10.3435 8.17573 10.2846 8.11691C10.2258 7.99926 10.1082 7.88161 10.0493 7.82279C10.167 7.58749 10.2258 7.52867 10.3435 7.41102Z" fill="#35441C"/>
<path d="M4.9919 10.0009C5.10955 9.94204 4.93308 9.8244 4.87426 9.88322C4.75661 9.94204 4.69779 10.0597 4.58014 10.1773C4.46249 10.0597 4.40367 9.94204 4.28602 9.88322C4.2272 9.8244 4.10955 9.94204 4.16838 10.0009C4.28602 10.1185 4.40367 10.2362 4.46249 10.3538C4.34485 10.4715 4.28602 10.5891 4.2272 10.7067C4.16838 10.8244 4.34485 10.8832 4.34485 10.7656C4.40367 10.6479 4.46249 10.5303 4.58014 10.4715C4.63896 10.4715 4.75661 10.5891 4.81543 10.6479C4.87426 10.7067 4.99191 10.6479 4.93308 10.5891C4.87426 10.4715 4.75661 10.3538 4.69779 10.295C4.75661 10.1773 4.87426 10.0597 4.9919 10.0009Z" fill="#35441C"/>
<path d="M2.69894 13.3524C2.81658 13.2936 2.64011 13.176 2.58129 13.2348C2.46364 13.2936 2.40482 13.4113 2.28717 13.5289C2.16952 13.4113 2.1107 13.2936 1.99305 13.2348C1.93423 13.176 1.81658 13.2936 1.87541 13.3524C1.99305 13.4701 2.1107 13.5877 2.16952 13.7054C2.05188 13.823 1.99305 13.9407 1.93423 14.0583C1.87541 14.176 2.05188 14.2348 2.05188 14.1171C2.1107 13.9995 2.16952 13.8818 2.28717 13.823C2.346 13.8818 2.40482 13.9995 2.52247 14.1171C2.58129 14.176 2.69894 14.1171 2.64011 14.0583C2.58129 13.9407 2.46364 13.823 2.40482 13.7642C2.46364 13.5289 2.58129 13.4113 2.69894 13.3524Z" fill="#35441C"/>
<path d="M4.46066 17.1758C4.5783 17.117 4.40183 16.9993 4.34301 17.0582C4.22536 17.117 4.16654 17.2346 4.04889 17.3523C3.93124 17.2346 3.87242 17.117 3.75477 17.0582C3.69595 16.9405 3.5783 17.0582 3.63713 17.117C3.75477 17.2346 3.87242 17.3523 3.93124 17.4699C3.8136 17.5876 3.75477 17.7052 3.69595 17.8229C3.63713 17.9405 3.8136 17.9993 3.8136 17.8817C3.87242 17.764 3.93124 17.6464 4.04889 17.5876C4.16654 17.6464 4.22536 17.764 4.28418 17.8229C4.34301 17.8817 4.46066 17.8229 4.40183 17.764C4.34301 17.6464 4.28418 17.5287 4.16654 17.4111C4.28418 17.3523 4.34301 17.2346 4.46066 17.1758Z" fill="#35441C"/>
<path d="M7.28487 7.17665C7.40252 7.11782 7.22605 7.00018 7.16723 7.059C7.04958 7.11782 6.99076 7.23547 6.87311 7.35312C6.75546 7.23547 6.69664 7.11782 6.57899 7.059C6.52017 7.00018 6.40252 7.11782 6.46134 7.17665C6.57899 7.29429 6.69664 7.41194 6.75546 7.52959C6.63781 7.64724 6.57899 7.76488 6.52017 7.88253C6.46134 8.00018 6.63782 8.059 6.63782 7.94135C6.69664 7.82371 6.75546 7.70606 6.87311 7.64724C6.93193 7.70606 6.99076 7.82371 7.1084 7.94135C7.16723 8.00018 7.28487 7.94135 7.22605 7.88253C7.16723 7.76488 7.04958 7.64724 6.99076 7.58841C7.1084 7.35312 7.16723 7.29429 7.28487 7.17665Z" fill="#35441C"/>
<path d="M10.1091 28.704C10.2267 28.6452 10.0503 28.5275 9.99145 28.5863C9.8738 28.6452 9.81497 28.7628 9.69733 28.8805C9.57968 28.7628 9.52086 28.6452 9.40321 28.5863C9.34439 28.5275 9.22674 28.6452 9.28556 28.704C9.40321 28.8216 9.52086 28.9393 9.57968 29.0569C9.46203 29.1746 9.40321 29.2922 9.34439 29.4099C9.28556 29.4099 9.46203 29.4687 9.52086 29.4099C9.57968 29.2922 9.6385 29.1746 9.75615 29.1158C9.81498 29.1746 9.8738 29.2922 9.99145 29.4099C10.0503 29.4687 10.1679 29.4099 10.1091 29.3511C10.0503 29.2334 9.93262 29.1158 9.8738 29.0569C9.8738 28.8805 9.99145 28.7628 10.1091 28.704Z" fill="#657F33"/>
<path d="M7.81612 31.997C7.93377 31.9381 7.7573 31.8205 7.69848 31.8793C7.58083 31.9381 7.52201 32.0558 7.40436 32.1734C7.28671 32.0558 7.22789 31.9381 7.11024 31.8793C7.05142 31.8205 6.93377 31.9381 6.99259 31.997C7.11024 32.1146 7.22789 32.2323 7.28671 32.3499C7.16907 32.4675 7.11024 32.5852 7.05142 32.7028C6.99259 32.8205 7.16907 32.8793 7.16907 32.7617C7.22789 32.644 7.28671 32.5264 7.40436 32.4675C7.46318 32.5264 7.52201 32.644 7.63965 32.7617C7.69848 32.8205 7.81612 32.7617 7.7573 32.7028C7.69848 32.5852 7.58083 32.4675 7.52201 32.4087C7.58083 32.1734 7.69848 32.1146 7.81612 31.997Z" fill="#657F33"/>
<path d="M18.2888 26.3563C18.4064 26.2975 18.23 26.1799 18.1711 26.2387C18.0535 26.2975 17.9947 26.4152 17.877 26.5328C17.7594 26.4152 17.7005 26.2975 17.5829 26.2387C17.5241 26.1799 17.4064 26.2975 17.4653 26.3563C17.5829 26.474 17.7005 26.5916 17.7594 26.7093C17.6417 26.8269 17.5829 26.9446 17.5241 27.0622C17.4653 27.1799 17.6417 27.2387 17.6417 27.121C17.7005 27.0034 17.7594 26.8857 17.877 26.8269C17.9358 26.8857 17.9947 27.0034 18.1123 27.121C18.1711 27.1799 18.2888 27.121 18.23 27.0622C18.1711 26.9446 18.0535 26.8269 17.9947 26.7681C18.1123 26.5328 18.1711 26.474 18.2888 26.3563Z" fill="#657F33"/>
<path d="M22.6364 22.5282C22.7541 22.4694 22.5776 22.3517 22.5188 22.4106C22.4011 22.4694 22.3423 22.587 22.2247 22.7047C22.107 22.587 22.0482 22.4694 21.9306 22.4106C21.8717 22.3517 21.7541 22.4694 21.8129 22.5282C21.9306 22.6459 22.0482 22.7635 22.107 22.8812C21.9894 22.9988 21.9306 23.1164 21.8717 23.2341C21.8129 23.3517 21.9894 23.4106 21.9894 23.2929C22.0482 23.1753 22.107 23.0576 22.2247 22.9988C22.2835 23.0576 22.3423 23.1753 22.46 23.2929C22.5188 23.3517 22.6364 23.2929 22.5776 23.2341C22.5188 23.1164 22.4011 22.9988 22.3423 22.94C22.46 22.7047 22.5188 22.6459 22.6364 22.5282Z" fill="#657F33"/>
<path d="M21.8708 17.1766C21.9885 17.1178 21.812 17.0002 21.7532 17.059C21.6355 17.1178 21.5767 17.2355 21.459 17.3531C21.3414 17.2355 21.2826 17.1178 21.1649 17.059C21.1061 17.0002 20.9885 17.1178 21.0473 17.1766C21.1649 17.2943 21.2826 17.4119 21.3414 17.5296C21.2238 17.6472 21.1649 17.7649 21.1061 17.8825C21.0473 18.0002 21.2238 18.059 21.2238 17.9414C21.2826 17.8237 21.3414 17.7061 21.459 17.6472C21.5179 17.7061 21.5767 17.8237 21.6943 17.9414C21.7532 18.0002 21.8708 17.9414 21.812 17.8825C21.7532 17.7649 21.6355 17.6472 21.5767 17.5884C21.6943 17.3531 21.7532 17.2355 21.8708 17.1766Z" fill="#657F33"/>
<path d="M18.8161 13.8212C18.9338 13.7624 18.7573 13.6447 18.6985 13.7035C18.5808 13.7624 18.522 13.88 18.4044 13.9976C18.2867 13.88 18.2279 13.7624 18.1102 13.7035C18.0514 13.6447 17.9338 13.7624 17.9926 13.8212C18.1102 13.9388 18.2279 14.0565 18.2867 14.1741C18.1691 14.2918 18.1102 14.4094 18.0514 14.5271C17.9926 14.6447 18.1691 14.7035 18.1691 14.5859C18.2279 14.4682 18.2867 14.3506 18.4044 14.2918C18.4632 14.3506 18.522 14.4682 18.6397 14.5859C18.6985 14.6447 18.8161 14.5859 18.7573 14.5271C18.6985 14.4094 18.5808 14.2918 18.522 14.2329C18.5808 13.9977 18.6985 13.9388 18.8161 13.8212Z" fill="#657F33"/>
<path d="M13.406 14.8837C13.5236 14.8249 13.3471 14.7072 13.2883 14.766C13.1707 14.8249 13.1119 14.9425 12.9942 15.0601C12.8766 14.9425 12.8177 14.8249 12.7001 14.766C12.6413 14.7072 12.5236 14.8249 12.5824 14.8837C12.7001 15.0013 12.8177 15.119 12.8766 15.2366C12.7589 15.3543 12.7001 15.4719 12.6413 15.5896C12.5824 15.7072 12.7589 15.766 12.7589 15.6484C12.8177 15.5307 12.8766 15.4131 12.9942 15.3543C13.053 15.4131 13.1119 15.5307 13.2295 15.6484C13.2883 15.7072 13.406 15.6484 13.3471 15.5896C13.2883 15.4719 13.1707 15.3543 13.1119 15.2954C13.2295 15.0601 13.3471 14.9425 13.406 14.8837Z" fill="#657F33"/>
<path d="M21.6364 28.4149C21.7541 28.3561 21.5776 28.2385 21.5188 28.2973C21.4011 28.3561 21.3423 28.4738 21.2247 28.5914C21.107 28.4738 21.0482 28.3561 20.9306 28.2973C20.8717 28.2385 20.7541 28.3561 20.8129 28.4149C20.9306 28.5326 21.0482 28.6502 21.107 28.7679C20.9894 28.8855 20.9306 29.0032 20.8717 29.1208C20.8129 29.2385 20.9894 29.2973 20.9894 29.1796C21.0482 29.062 21.107 28.9443 21.2247 28.8855C21.2835 28.9443 21.3423 29.062 21.46 29.1796C21.5188 29.2385 21.6364 29.1796 21.5776 29.1208C21.5188 29.0032 21.4011 28.8855 21.3423 28.8267C21.4011 28.5914 21.5188 28.5326 21.6364 28.4149Z" fill="#657F33"/>
<path d="M14.4607 24.3524C14.5783 24.2936 14.4018 24.176 14.343 24.2348C14.2254 24.2936 14.1665 24.4113 14.0489 24.5289C13.9312 24.4113 13.8724 24.2936 13.7548 24.2348C13.6959 24.176 13.5783 24.2936 13.6371 24.3524C13.7548 24.4701 13.8724 24.5877 13.9312 24.7054C13.8136 24.823 13.7548 24.9407 13.6959 25.0583C13.6371 25.176 13.8136 25.2348 13.8136 25.1171C13.8724 24.9995 13.9312 24.8818 14.0489 24.823C14.1077 24.8818 14.1665 24.9995 14.2842 25.1171C14.343 25.176 14.4607 25.1171 14.4018 25.0583C14.343 24.9407 14.2254 24.823 14.1665 24.7642C14.2254 24.5289 14.343 24.4113 14.4607 24.3524Z" fill="#657F33"/>
</g>
<defs>
<clipPath id="clip0_2222_3568">
<rect width="30" height="40" fill="white"/>
</clipPath>
</defs>
</svg>
