<svg width="220" height="85" viewBox="0 0 220 85" fill="none" xmlns="http://www.w3.org/2000/svg">
<g filter="url(#filter0_dd_2236_892)">
<rect x="10" y="14" width="200" height="57" rx="28.5" fill="#D3A995"/>
<path d="M73.802 50.252C76.412 50.252 77.798 48.848 77.798 47.066C77.798 45.212 76.34 44.528 75.008 44.024C73.928 43.646 73.01 43.358 73.01 42.638C73.01 42.044 73.424 41.648 74.342 41.648C75.08 41.648 75.8 42.008 76.502 42.512L77.708 40.928C76.88 40.28 75.728 39.686 74.27 39.686C71.966 39.686 70.526 40.964 70.526 42.746C70.526 44.456 71.948 45.212 73.226 45.716C74.27 46.112 75.332 46.472 75.332 47.21C75.332 47.84 74.864 48.29 73.856 48.29C72.92 48.29 72.074 47.876 71.156 47.174L69.968 48.848C70.958 49.676 72.452 50.252 73.802 50.252ZM86.4401 50.252C87.8081 50.252 88.7621 49.586 89.6441 48.56H89.6981L89.8961 50H92.0561V39.938H89.4281V46.724C88.7441 47.624 88.2041 47.984 87.3761 47.984C86.3861 47.984 85.9541 47.444 85.9541 45.896V39.938H83.3081V46.22C83.3081 48.758 84.2621 50.252 86.4401 50.252ZM103.535 50.252C105.749 50.252 107.819 48.272 107.819 44.798C107.819 41.702 106.325 39.686 103.859 39.686C102.851 39.686 101.861 40.172 101.051 40.874L101.141 39.272V35.654H98.495V50H100.565L100.781 48.938H100.853C101.663 49.784 102.635 50.252 103.535 50.252ZM102.959 48.074C102.419 48.074 101.753 47.894 101.141 47.336V42.89C101.807 42.188 102.437 41.846 103.103 41.846C104.507 41.846 105.101 42.908 105.101 44.852C105.101 47.03 104.165 48.074 102.959 48.074ZM113.679 50H116.325V43.07C117.009 42.314 117.675 41.954 118.233 41.954C119.205 41.954 119.655 42.476 119.655 44.06V50H122.301V43.07C123.021 42.314 123.651 41.954 124.227 41.954C125.199 41.954 125.631 42.476 125.631 44.06V50H128.277V43.718C128.277 41.198 127.305 39.686 125.163 39.686C123.849 39.686 122.877 40.478 121.941 41.432C121.473 40.316 120.627 39.686 119.169 39.686C117.873 39.686 116.937 40.406 116.091 41.27H116.037L115.821 39.938H113.679V50ZM134.629 50H137.275V39.938H134.629V50ZM135.943 38.3C136.861 38.3 137.491 37.724 137.491 36.842C137.491 35.978 136.861 35.42 135.943 35.42C135.025 35.42 134.413 35.978 134.413 36.842C134.413 37.724 135.025 38.3 135.943 38.3ZM147.367 50.252C148.267 50.252 148.969 50.054 149.509 49.874L149.077 47.948C148.789 48.056 148.411 48.182 148.069 48.182C147.187 48.182 146.701 47.642 146.701 46.49V42.008H149.203V39.938H146.701V37.202H144.505L144.217 39.938L142.651 40.046V42.008H144.055V46.49C144.055 48.74 144.973 50.252 147.367 50.252Z" fill="white"/>
</g>
<defs>
<filter id="filter0_dd_2236_892" x="0" y="0" width="220" height="85" filterUnits="userSpaceOnUse" color-interpolation-filters="sRGB">
<feFlood flood-opacity="0" result="BackgroundImageFix"/>
<feColorMatrix in="SourceAlpha" type="matrix" values="0 0 0 0 0 0 0 0 0 0 0 0 0 0 0 0 0 0 127 0" result="hardAlpha"/>
<feOffset dy="-4"/>
<feGaussianBlur stdDeviation="5"/>
<feComposite in2="hardAlpha" operator="out"/>
<feColorMatrix type="matrix" values="0 0 0 0 1 0 0 0 0 1 0 0 0 0 1 0 0 0 0.9 0"/>
<feBlend mode="normal" in2="BackgroundImageFix" result="effect1_dropShadow_2236_892"/>
<feColorMatrix in="SourceAlpha" type="matrix" values="0 0 0 0 0 0 0 0 0 0 0 0 0 0 0 0 0 0 127 0" result="hardAlpha"/>
<feOffset dy="4"/>
<feGaussianBlur stdDeviation="5"/>
<feComposite in2="hardAlpha" operator="out"/>
<feColorMatrix type="matrix" values="0 0 0 0 0.158333 0 0 0 0 0.137882 0 0 0 0 0.137882 0 0 0 0.35 0"/>
<feBlend mode="normal" in2="effect1_dropShadow_2236_892" result="effect2_dropShadow_2236_892"/>
<feBlend mode="normal" in="SourceGraphic" in2="effect2_dropShadow_2236_892" result="shape"/>
</filter>
</defs>
</svg>
