<svg width="220" height="85" viewBox="0 0 220 85" fill="none" xmlns="http://www.w3.org/2000/svg">
<g filter="url(#filter0_dd_2275_1453)">
<rect x="10" y="14" width="200" height="57" rx="28.5" fill="#B57556"/>
<path fill-rule="evenodd" clip-rule="evenodd" d="M58 30.5C51.376 30.5 46 35.876 46 42.5C46 49.124 51.376 54.5 58 54.5C64.624 54.5 70 49.124 70 42.5C70 35.876 64.624 30.5 58 30.5ZM55.3562 44.8608C55.4909 44.9952 55.709 44.995 55.8435 44.8605L62.656 38.048C63.1261 37.5779 63.8886 37.5793 64.357 38.051C64.8231 38.5204 64.8217 39.2783 64.354 39.746L56.4276 47.6724C55.9705 48.1295 55.2295 48.1295 54.7724 47.6724L50.4466 43.3466C49.979 42.879 49.979 42.121 50.4466 41.6534C50.9137 41.1863 51.6708 41.1858 52.1386 41.6522L55.3562 44.8608Z" fill="#E6FFB1"/>
<path d="M90.302 50.252C92.912 50.252 94.298 48.848 94.298 47.066C94.298 45.212 92.84 44.528 91.508 44.024C90.428 43.646 89.51 43.358 89.51 42.638C89.51 42.044 89.924 41.648 90.842 41.648C91.58 41.648 92.3 42.008 93.002 42.512L94.208 40.928C93.38 40.28 92.228 39.686 90.77 39.686C88.466 39.686 87.026 40.964 87.026 42.746C87.026 44.456 88.448 45.212 89.726 45.716C90.77 46.112 91.832 46.472 91.832 47.21C91.832 47.84 91.364 48.29 90.356 48.29C89.42 48.29 88.574 47.876 87.656 47.174L86.468 48.848C87.458 49.676 88.952 50.252 90.302 50.252ZM102.94 50.252C104.308 50.252 105.262 49.586 106.144 48.56H106.198L106.396 50H108.556V39.938H105.928V46.724C105.244 47.624 104.704 47.984 103.876 47.984C102.886 47.984 102.454 47.444 102.454 45.896V39.938H99.8081V46.22C99.8081 48.758 100.762 50.252 102.94 50.252ZM119.261 50.252C120.377 50.252 121.619 49.874 122.573 49.046L121.529 47.3C120.971 47.75 120.287 48.11 119.549 48.11C118.109 48.11 117.065 46.868 117.065 44.978C117.065 43.07 118.091 41.846 119.657 41.846C120.197 41.846 120.683 42.062 121.187 42.494L122.429 40.802C121.691 40.154 120.755 39.686 119.495 39.686C116.759 39.686 114.365 41.63 114.365 44.978C114.365 48.308 116.489 50.252 119.261 50.252ZM131.72 50.252C132.836 50.252 134.078 49.874 135.032 49.046L133.988 47.3C133.43 47.75 132.746 48.11 132.008 48.11C130.568 48.11 129.524 46.868 129.524 44.978C129.524 43.07 130.55 41.846 132.116 41.846C132.656 41.846 133.142 42.062 133.646 42.494L134.888 40.802C134.15 40.154 133.214 39.686 131.954 39.686C129.218 39.686 126.824 41.63 126.824 44.978C126.824 48.308 128.948 50.252 131.72 50.252ZM144.306 50.252C145.548 50.252 146.808 49.838 147.798 49.154L146.916 47.516C146.178 47.966 145.458 48.218 144.648 48.218C143.154 48.218 142.074 47.372 141.84 45.716H148.068C148.122 45.464 148.176 44.996 148.176 44.492C148.176 41.702 146.754 39.686 143.964 39.686C141.588 39.686 139.284 41.702 139.284 44.978C139.284 48.308 141.48 50.252 144.306 50.252ZM141.804 43.952C142.02 42.476 142.956 41.72 144.018 41.72C145.314 41.72 145.926 42.584 145.926 43.952H141.804ZM156.853 50.252C159.463 50.252 160.849 48.848 160.849 47.066C160.849 45.212 159.391 44.528 158.059 44.024C156.979 43.646 156.061 43.358 156.061 42.638C156.061 42.044 156.475 41.648 157.393 41.648C158.131 41.648 158.851 42.008 159.553 42.512L160.759 40.928C159.931 40.28 158.779 39.686 157.321 39.686C155.017 39.686 153.577 40.964 153.577 42.746C153.577 44.456 154.999 45.212 156.277 45.716C157.321 46.112 158.383 46.472 158.383 47.21C158.383 47.84 157.915 48.29 156.907 48.29C155.971 48.29 155.125 47.876 154.207 47.174L153.019 48.848C154.009 49.676 155.503 50.252 156.853 50.252ZM169.365 50.252C171.975 50.252 173.361 48.848 173.361 47.066C173.361 45.212 171.903 44.528 170.571 44.024C169.491 43.646 168.573 43.358 168.573 42.638C168.573 42.044 168.987 41.648 169.905 41.648C170.643 41.648 171.363 42.008 172.065 42.512L173.271 40.928C172.443 40.28 171.291 39.686 169.833 39.686C167.529 39.686 166.089 40.964 166.089 42.746C166.089 44.456 167.511 45.212 168.789 45.716C169.833 46.112 170.895 46.472 170.895 47.21C170.895 47.84 170.427 48.29 169.419 48.29C168.483 48.29 167.637 47.876 166.719 47.174L165.531 48.848C166.521 49.676 168.015 50.252 169.365 50.252Z" fill="#E6FFB1"/>
</g>
<defs>
<filter id="filter0_dd_2275_1453" x="0" y="0" width="220" height="85" filterUnits="userSpaceOnUse" color-interpolation-filters="sRGB">
<feFlood flood-opacity="0" result="BackgroundImageFix"/>
<feColorMatrix in="SourceAlpha" type="matrix" values="0 0 0 0 0 0 0 0 0 0 0 0 0 0 0 0 0 0 127 0" result="hardAlpha"/>
<feOffset dy="-4"/>
<feGaussianBlur stdDeviation="5"/>
<feComposite in2="hardAlpha" operator="out"/>
<feColorMatrix type="matrix" values="0 0 0 0 1 0 0 0 0 1 0 0 0 0 1 0 0 0 0.9 0"/>
<feBlend mode="normal" in2="BackgroundImageFix" result="effect1_dropShadow_2275_1453"/>
<feColorMatrix in="SourceAlpha" type="matrix" values="0 0 0 0 0 0 0 0 0 0 0 0 0 0 0 0 0 0 127 0" result="hardAlpha"/>
<feOffset dy="4"/>
<feGaussianBlur stdDeviation="5"/>
<feComposite in2="hardAlpha" operator="out"/>
<feColorMatrix type="matrix" values="0 0 0 0 0.158333 0 0 0 0 0.137882 0 0 0 0 0.137882 0 0 0 0.35 0"/>
<feBlend mode="normal" in2="effect1_dropShadow_2275_1453" result="effect2_dropShadow_2275_1453"/>
<feBlend mode="normal" in="SourceGraphic" in2="effect2_dropShadow_2275_1453" result="shape"/>
</filter>
</defs>
</svg>
